<svg width="56" height="39" viewBox="0 0 56 39" fill="none" xmlns="http://www.w3.org/2000/svg">
<path d="M0 2C0 0.89543 0.668588 0 1.49333 0H54.5067C55.3314 0 56 0.895431 56 2V5C56 6.10457 55.3314 7 54.5067 7H1.49333C0.668587 7 0 6.10457 0 5V2Z" fill="black"/>
<path d="M0 18C0 16.8954 0.668588 16 1.49333 16H54.5067C55.3314 16 56 16.8954 56 18V21C56 22.1046 55.3314 23 54.5067 23H1.49333C0.668587 23 0 22.1046 0 21V18Z" fill="black"/>
<path d="M0 34C0 32.8954 0.668588 32 1.49333 32H54.5067C55.3314 32 56 32.8954 56 34V37C56 38.1046 55.3314 39 54.5067 39H1.49333C0.668587 39 0 38.1046 0 37V34Z" fill="black"/>
</svg>
