<svg width="2032" height="1546" viewBox="0 0 2032 1546" fill="none" xmlns="http://www.w3.org/2000/svg">
<path d="M522.64 858.365C519.688 857.876 516.661 859.24 514.392 860.264C511.365 861.629 509.095 862.652 506.41 864.774C413.24 918.623 319.387 970.959 230.386 1032.03C208.978 1047.15 186.812 1062.61 167.867 1081.17C164.766 1084.39 162.08 1086.51 159.811 1087.53C156.027 1089.24 153.075 1088.75 150.197 1086.4C149.099 1085.99 148.417 1084.47 148.076 1083.72C146.029 1079.18 148.106 1073.69 154.307 1067.25C169.886 1049.3 188.609 1036.3 207.747 1022.21C246.365 994.782 287.105 970.038 327.429 946.392C373.05 920.357 417.573 893.907 463.193 867.872C483.356 856.049 504.615 844.642 525.119 833.575C530.074 830.43 533.931 826.87 536.009 821.381C537.745 815.135 540.92 810.061 545.459 808.014C546.973 807.332 548.071 807.747 549.584 807.065L552.61 805.7C557.15 803.653 558.812 799.262 560.815 795.627C595.622 733.497 632.624 672.198 671.407 612.827C716.125 544.407 761.94 476.402 813.17 412.329C821.79 401.158 831.849 391.16 841.908 381.161C846.937 376.161 852.308 371.919 858.02 368.433L861.803 366.727C873.909 361.268 883.789 365.007 888.907 376.356C889.931 378.626 890.954 380.896 891.221 383.507C892.779 390.999 891.725 398.758 890.33 405.76C886.457 437.553 879.972 469.612 873.903 500.574C864.065 551.445 853.47 602.657 845.071 654.7C844.24 656.896 843.751 659.848 843.261 662.8C843.113 666.509 842.282 668.705 842.964 670.218C843.988 672.488 847.355 671.88 852.993 670.248C864.268 666.985 876.3 663.38 887.575 660.117L897.678 658.293C902.144 658.1 908.538 656.127 910.585 660.667C910.926 661.424 910.511 662.521 910.852 663.278C911.801 667.402 910.214 669.939 907.187 671.304C904.918 672.327 902.306 672.594 899.695 672.861C883.198 676.659 866.285 681.554 850.055 687.962L847.785 688.986C840.975 692.056 837.8 697.13 837.088 705.645C822.975 807.61 811.473 909.308 802.923 1011.5C798.277 1071.86 793.631 1132.23 791.937 1193.08C791.358 1226.12 791.193 1258.06 793.981 1290.49C794.856 1296.47 796.072 1303.21 796.606 1308.43C796.873 1311.04 797.896 1313.31 798.92 1315.58C800.285 1318.61 802.406 1321.29 806.041 1323.3C808.578 1324.88 810.017 1326.06 811.04 1328.33C812.064 1330.6 812.331 1333.21 811.084 1336.5C809.838 1339.79 807.153 1341.91 804.126 1343.28C801.856 1344.3 799.586 1345.33 796.634 1344.84C790.73 1343.86 786.413 1340.34 783.268 1335.39L781.22 1330.85C778.15 1324.04 776.177 1317.64 774.619 1310.15C768.464 1278.33 768.287 1245.63 768.111 1212.93C768.56 1108.93 776.768 1005.99 787.247 902.023C793.747 841.731 800.589 782.196 808.944 721.978C809.433 719.026 811.852 714.294 810.146 710.51C809.805 709.754 809.464 708.997 808.366 708.582C806.17 707.751 804.316 707.677 802.046 708.7C799.776 709.724 797.847 711.504 795.577 712.527C746.396 734.705 699.337 759.567 652.618 785.186C625.305 799.324 599.09 813.876 572.534 827.672C563.795 832.523 558.35 838.621 555.709 848.916C548.083 872.386 539.7 896.197 531.316 920.008C513.719 969.825 495.781 1018.89 478.184 1068.7C460.023 1123.33 437.471 1176.29 416.016 1229.67C404.458 1258.55 392.143 1287.78 378.048 1315.07C373.627 1323.44 368.864 1331.05 362.663 1337.49C360.734 1339.27 358.049 1341.39 355.779 1342.42C352.752 1343.78 348.628 1344.73 344.237 1343.07C339.845 1341.41 337.724 1338.72 336.018 1334.94C334.653 1331.91 334.386 1329.3 333.778 1325.93C333.274 1310.68 337.918 1296.75 341.465 1282.4C360.071 1216.65 385.606 1154.15 412.654 1090.97C444.613 1016.47 480.963 943.624 519.509 871.613L523.248 861.733C523.664 860.635 522.981 859.122 522.64 858.365ZM581.065 800.153C584.774 800.301 586.287 799.619 588.557 798.595L592.341 796.889C612.428 786.921 632.516 776.952 652.263 766.226C701.251 739.584 750.506 715.552 800.518 691.179C810.355 686.744 815.043 680.988 817.343 669.935C826.113 608.62 838.934 548.21 850.656 487.384L863.655 413.236C864.561 409.186 866.222 404.795 864.175 400.255L863.152 397.985L860.882 399.009C858.612 400.032 857.44 401.471 855.511 403.252C836.907 422.567 818.302 441.882 801.477 463.126C721.212 565.785 651.095 674.794 586.051 786.979C584.048 790.613 580.19 794.174 581.065 800.153ZM468.988 1020.04C453.143 1035.38 374.728 1230.99 371.804 1266.9C408.452 1186.64 438.171 1103.13 468.988 1020.04ZM983.777 644.051C985.973 644.882 987.486 644.2 988.243 643.858C990.512 642.835 992.441 641.055 994.37 639.275L998.153 637.569C1011.02 631.768 1025.02 634.558 1034.95 646.471C1038.51 650.329 1041.31 654.527 1043.36 659.067C1046.77 666.634 1048.33 674.126 1050.22 682.374C1051.44 689.11 1052.24 696.943 1053.8 704.435C1054.14 705.192 1053.72 706.289 1054.07 707.046C1055.09 709.316 1057.28 710.147 1059.55 709.123L1061.07 708.441C1082.14 692.568 1106.08 679.039 1115.71 651.934C1116.13 650.836 1116.54 649.739 1117.71 648.3C1118.54 646.104 1118.96 645.006 1120.47 644.324C1121.99 643.641 1123.84 643.716 1125.28 644.888C1127.47 645.719 1128.91 646.891 1129.26 647.647C1129.94 649.161 1129.86 651.015 1129.45 652.113C1128.81 658.774 1125.98 664.604 1123.14 670.435C1116.38 681.68 1106.32 691.679 1096.33 699.823C1085.93 709.065 1075.95 717.209 1065.28 723.841C1056.88 729.448 1053.63 736.376 1053.26 745.648C1049.85 784.518 1040.19 821.651 1020.23 856.143C1015.06 864.851 1008.44 872.387 1000.72 879.508C996.867 883.068 992.668 885.872 988.129 887.919C966.943 897.473 944.304 887.651 933.727 864.195L932.021 860.412C921.4 828.782 928.493 800.09 953.225 776.191C969.411 761.608 988.401 751.224 1006.63 741.181C1011.59 738.036 1016.13 735.989 1020.67 733.942C1025.62 730.797 1028.38 726.821 1028.27 720.501C1028.18 704.152 1025.82 688.827 1020.85 673.768C1021.27 672.671 1020.92 671.914 1020.24 670.401C1019.9 669.644 1019.56 668.887 1018.46 668.472C1014.98 662.76 1011 660.001 1007.22 661.706C1004.95 662.73 1003.02 664.51 1001.43 667.047C994.057 674.924 989.561 685.146 985.822 695.026C979.665 709.639 975.362 724.326 973.596 740.601C972.127 749.458 969.708 754.19 965.169 756.237C963.655 756.92 961.801 756.845 959.946 756.771C956.237 756.623 953.701 755.035 951.995 751.252C950.63 748.226 950.437 743.76 950.66 738.197C950.987 720.75 952.412 703.719 953.496 685.931C953.303 681.465 954.208 677.415 952.502 673.632C951.82 672.119 951.138 670.606 949.699 669.433C949.357 668.677 948.26 668.261 947.918 667.505C946.212 663.722 947.874 659.33 950.218 656.452C956.079 649.257 957.132 641.498 957.845 632.983C963.9 583.818 970.296 535.409 984.11 487.298C987.092 477.759 990.831 467.878 997.107 459.585C1000.21 456.366 1002.55 453.488 1006.34 451.782C1009.36 450.418 1013.83 450.225 1017.88 451.13C1023.03 452.451 1025.49 455.893 1027.53 460.432C1028.56 462.702 1029.58 464.972 1030.19 468.34C1031.75 475.832 1030.35 482.834 1029.3 490.593C1022.18 529.314 1009.15 567.055 994.683 603.625L984.712 629.972C983.051 634.363 981.389 638.755 983.095 642.538L983.777 644.051ZM1026.32 750.513C1010.43 757.678 995.566 767.113 980.701 776.548C971.547 782.497 963.075 789.959 956.384 799.349C944.589 815.594 943.016 836.334 951.204 854.493L953.592 859.79C960.224 870.457 969.347 874.537 979.94 869.76C981.453 869.078 982.625 867.639 984.139 866.956C990.266 862.372 994.954 856.616 998.545 850.445C1017.18 821.101 1025.18 788.359 1027.69 753.54L1026.32 750.513ZM1207.81 622.238C1222.26 613.901 1239.67 606.054 1252.9 590.981C1253.66 590.64 1254.83 589.201 1255.59 588.86C1256.34 588.519 1257.51 587.08 1258.27 586.738C1259.78 586.056 1261.64 586.13 1263.42 588.059L1264.1 589.572C1265.13 591.842 1265.05 593.697 1264.22 595.892C1262.56 600.284 1259.12 602.746 1256.77 605.624C1246.71 615.623 1235.29 622.595 1223.52 628.811C1214.03 634.003 1204.53 639.195 1194.7 643.63C1187.13 647.042 1183.96 652.116 1182.49 660.973C1179.97 677.589 1175.59 694.13 1171.21 710.672C1167.4 722.406 1162.15 732.969 1156.14 743.873C1153.72 748.606 1150.96 752.581 1146 755.726L1142.22 757.432C1134.65 760.844 1126.55 759.034 1120.95 750.637C1120.26 749.124 1118.48 747.195 1117.8 745.682C1115.41 740.385 1114.95 733.309 1114.08 727.33C1113.31 709.468 1113.29 691.264 1114.38 673.476C1114.6 667.913 1114.41 663.448 1112.36 658.908C1111 655.881 1109.22 653.952 1107.09 651.267C1103.87 648.166 1101.75 645.481 1100.05 641.698C1096.64 634.132 1097.01 624.859 1098.48 616.003C1102.32 594.239 1113.09 575.724 1130.37 561.557C1133.06 559.436 1136.5 556.973 1139.53 555.608C1156.17 548.102 1173.74 554.749 1181.59 572.152C1182.61 574.422 1183.98 577.448 1184.24 580.059C1188.19 592.848 1188.01 606.586 1187.49 619.567C1187.34 623.276 1187.61 625.887 1188.29 627.4C1189.31 629.67 1191.92 629.403 1197.98 626.673L1207.81 622.238ZM1116.01 632.678C1118.7 630.557 1121.72 629.192 1123.99 628.169C1132.32 624.416 1136.29 627.175 1140.73 637.012L1142.43 640.795C1143.12 642.308 1144.14 644.578 1146.33 645.409C1148.53 646.24 1152.31 644.534 1156.1 642.828C1161.39 640.439 1167.86 636.612 1168.01 632.903C1171.29 615.946 1171.62 598.499 1165.21 582.269C1160.77 572.433 1156.04 570.014 1146.2 574.45L1143.93 575.473C1127.21 584.834 1113.53 611.033 1116.01 632.678ZM1165.19 656.937C1157.7 658.494 1152.82 659.785 1147.94 661.075L1145.67 662.099C1142.64 663.464 1139.95 665.585 1139.81 669.294C1139.06 687.838 1137.56 706.724 1140.87 726.174C1154.33 705.538 1159.68 683.092 1165.19 656.937ZM1326.47 573.284C1323.22 580.212 1319.97 587.14 1317.07 594.825C1311.4 606.485 1305.73 618.146 1296.43 627.803C1293.33 631.023 1289.13 633.826 1285.35 635.532C1280.81 637.579 1276.68 638.529 1271.53 637.208C1264.19 635.057 1259.53 630.784 1256.46 623.974C1255.44 621.704 1254.41 619.434 1254.15 616.823C1251.83 609.672 1252.13 602.255 1252.43 594.837C1252.98 571.827 1256.14 548.55 1261.49 526.104C1262.96 517.247 1266.14 512.173 1269.92 510.467C1272.19 509.444 1274.05 509.518 1277 510.008C1280.71 510.156 1283.59 512.5 1284.95 515.527C1286.66 519.31 1287.19 524.532 1285.8 531.534C1282.37 552.2 1278.94 572.866 1277.37 593.606C1277.56 598.072 1277.75 602.537 1278.29 607.76L1278.63 608.516C1279.65 610.786 1281.5 610.86 1283.02 610.178L1284.53 609.496C1290.24 606.009 1293.42 600.936 1296.59 595.862C1312.69 564.931 1328.79 533.999 1334.67 498.572C1335.57 494.522 1336.89 489.374 1338.89 485.739C1339.72 483.543 1341.31 481.007 1343.58 479.983C1345.1 479.301 1347.71 479.034 1349.9 479.865C1354.71 480.429 1358.34 482.432 1360.05 486.215C1360.39 486.971 1360.32 488.826 1360.66 489.582C1361.19 494.805 1360.21 500.709 1358.89 505.857C1353.92 537.234 1352.66 568.76 1356.2 600.849C1356.93 610.537 1359.51 620.299 1362.43 630.818C1363.11 632.331 1362.7 633.429 1363.38 634.942C1364.4 637.212 1366.94 638.799 1369.89 639.289C1372.09 640.12 1373.6 639.438 1375.87 638.414C1378.14 637.39 1380.07 635.61 1382 633.83C1386.35 627.317 1388.84 620.731 1392.09 613.802C1403.23 586.016 1409.23 556.908 1417.08 527.875C1417.91 525.68 1418.4 522.728 1418.89 519.775C1420.06 518.336 1420.89 516.141 1423.16 515.117C1423.92 514.776 1424.67 514.435 1425.77 514.85C1427.62 514.924 1429.06 516.097 1429.75 517.61C1430.43 519.123 1430.35 520.977 1430.62 523.589C1430.21 524.686 1429.79 525.784 1429.72 527.639C1421.3 561.478 1415.84 595.808 1402.28 628.327C1398.62 636.353 1394.54 645.477 1387.58 652.256C1384.48 655.475 1381.79 657.597 1378.01 659.303C1365.9 664.762 1353.07 660.533 1343.56 647.522C1341.44 644.836 1340.07 641.81 1338.71 638.783C1335.64 631.974 1333.74 623.725 1332.18 616.233L1329.2 579.337C1329.28 577.482 1328.94 576.726 1328.25 575.212C1327.91 574.456 1327.57 573.699 1326.47 573.284ZM1454.76 278.708C1440.39 285.19 1429.3 292.919 1417.88 299.892C1382.02 323.345 1346.16 346.799 1312.77 373.694C1310.08 375.816 1307.81 376.839 1305.54 377.863C1300.25 380.251 1295.78 380.444 1292.98 376.245L1292.29 374.732C1290.25 370.192 1292.32 364.703 1299.28 357.924C1316.23 343 1334.19 330.346 1353.26 318.107C1384.92 297.457 1417.67 277.223 1450.36 258.843C1457.58 254.674 1461.51 249.259 1462.23 240.744C1462.94 232.228 1465.17 223.03 1468.07 215.345C1470.15 209.856 1472.91 205.88 1476.69 204.175C1478.96 203.151 1481.92 203.641 1484.87 204.13C1488.92 205.035 1491.45 206.623 1492.82 209.65C1494.18 212.676 1494.04 216.385 1494.23 220.851L1492.76 229.707C1494.88 232.393 1497.15 231.369 1498.66 230.687L1500.93 229.663C1537.47 207.723 1575.8 187.711 1613.36 168.041C1625.88 161.484 1638.75 155.684 1651.61 149.883C1672.04 140.671 1692.81 132.216 1714.19 127.128C1718.31 126.179 1722.43 125.23 1726.14 125.378C1729.1 125.868 1732.05 126.357 1733.07 128.627L1733.75 130.141C1734.7 134.265 1732.77 136.045 1729.33 138.508C1727.82 139.19 1725.21 139.457 1722.94 140.481C1704.93 144.96 1686.5 150.538 1669.86 158.044C1665.32 160.091 1661.12 162.895 1656.58 164.942C1614.13 185.903 1571.27 207.962 1530.95 231.608C1520.28 238.239 1509.61 244.87 1497.85 251.086C1488.77 255.18 1484.42 261.693 1481.78 271.988C1473.34 315.857 1465.23 360.482 1458.99 405.182C1448.26 478.306 1437.53 551.43 1427.14 625.311C1420.06 672.207 1414.42 720.274 1410.3 767.659C1409.92 776.931 1409.97 785.105 1409.6 794.378C1409.45 798.086 1409.72 800.698 1409.57 804.406C1409.08 807.359 1407.83 810.652 1404.8 812.017C1404.05 812.358 1402.19 812.284 1401.44 812.625C1396.97 812.818 1394.85 810.132 1393.49 807.106L1392.12 804.079C1389.81 796.928 1390.1 789.511 1390.4 782.093C1390.83 752.763 1393.12 723.507 1396.5 694.667C1409.8 566.665 1425.71 438.397 1448.62 311.524C1450.16 300.813 1452.05 290.858 1454.76 278.708Z" fill="#FFC4C4"/>
</svg>
